<svg width="136" height="100" viewBox="0 0 136 100" fill="none" xmlns="http://www.w3.org/2000/svg">
<path d="M62.9715 91.2698H81.4976C91.309 91.3276 98.6258 85.7558 101.182 76.2174L112.181 34.5336C114.497 25.2705 109.278 18.3744 100.603 18.3233L62.3925 18.3233H42.1296C28.5445 18.2432 16.7037 26.0027 13.1649 39.2098L0.445866 86.6778C-1.59433 94.2919 5.5029 101.151 12.9853 98.796L36.3402 91.2698H62.9715Z" fill="#5027B1"/>
<rect x="71.0768" y="36.8494" width="18.5261" height="18.5261" rx="9.26305" fill="white"/>
<rect x="52.5505" y="37.0833" width="9.26306" height="18.5261" rx="4.63153" fill="white"/>
<path d="M117.971 69.2701C121.185 66.4936 123.121 62.8787 124.283 58.5421L135.453 18.3233C137.713 9.88892 131.278 1.00614 122.603 0.955033L64.1775 0.955553C57.2997 0.915035 50.8397 2.08608 45.6783 6.10948L45.6721 6.10398L23.5334 24.0311C28.6914 20.2916 35.1824 18.2823 42.1297 18.3233L101.182 18.3233C101.199 18.3286 101.216 18.3339 101.234 18.3393C109.529 18.7134 114.441 25.4973 112.182 34.5336L101.182 76.2174C100.238 79.7407 98.6439 82.7227 96.5149 85.0798L117.971 69.2701Z" fill="#9C78F2"/>
<path d="M100.497 82.1459C102.404 79.836 103.842 76.9809 104.718 73.6494L115.655 33.9547C118.55 22.3758 109.832 14.9021 101.182 14.8502L45.8368 14.8502C39.9166 14.8147 34.3285 16.3001 29.6186 19.1036L23.5334 24.0311C28.6914 20.2916 35.1824 18.2823 42.1297 18.3233L101.182 18.3233L101.234 18.3393C109.529 18.7134 114.441 25.4973 112.182 34.5336L101.182 76.2174C100.238 79.7407 98.6439 82.7228 96.5149 85.0798L100.497 82.1459Z" fill="white"/>
</svg>
